TITLE ""
FILE "DISC2Track23.mp3" MP3
  TRACK 01 AUDIO
    TITLE "DISC2Track23_01"
    INDEX 01 00:00:00
  TRACK 02 AUDIO
    TITLE "DISC2Track23_02"
    INDEX 01 00:05:47
  TRACK 03 AUDIO
    TITLE "DISC2Track23_03"
    INDEX 01 00:05:70
  TRACK 04 AUDIO
    TITLE "DISC2Track23_04"
    INDEX 01 00:09:37
  TRACK 05 AUDIO
    TITLE "DISC2Track23_05"
    INDEX 01 00:12:57
  TRACK 06 AUDIO
    TITLE "DISC2Track23_06"
    INDEX 01 00:15:57
  TRACK 07 AUDIO
    TITLE "DISC2Track23_07"
    INDEX 01 00:16:19
  TRACK 08 AUDIO
    TITLE "DISC2Track23_08"
    INDEX 01 00:20:09
  TRACK 09 AUDIO
    TITLE "DISC2Track23_09"
    INDEX 01 00:24:44
  TRACK 10 AUDIO
    TITLE "DISC2Track23_10"
    INDEX 01 00:29:00
  TRACK 11 AUDIO
    TITLE "DISC2Track23_11"
    INDEX 01 00:29:22
  TRACK 12 AUDIO
    TITLE "DISC2Track23_12"
    INDEX 01 00:32:36
  TRACK 13 AUDIO
    TITLE "DISC2Track23_13"
    INDEX 01 00:35:65
  TRACK 14 AUDIO
    TITLE "DISC2Track23_14"
    INDEX 01 00:39:06
  TRACK 15 AUDIO
    TITLE "DISC2Track23_15"
    INDEX 01 00:39:36
  TRACK 16 AUDIO
    TITLE "DISC2Track23_16"
    INDEX 01 00:43:06
  TRACK 17 AUDIO
    TITLE "DISC2Track23_17"
    INDEX 01 00:47:29
  TRACK 18 AUDIO
    TITLE "DISC2Track23_18"
    INDEX 01 00:51:45
  TRACK 19 AUDIO
    TITLE "DISC2Track23_19"
    INDEX 01 00:51:68
  TRACK 20 AUDIO
    TITLE "DISC2Track23_20"
    INDEX 01 00:56:05
  TRACK 21 AUDIO
    TITLE "DISC2Track23_21"
    INDEX 01 01:00:32
  TRACK 22 AUDIO
    TITLE "DISC2Track23_22"
    INDEX 01 01:04:57
  TRACK 23 AUDIO
    TITLE "DISC2Track23_23"
    INDEX 01 01:05:06
  TRACK 24 AUDIO
    TITLE "DISC2Track23_24"
    INDEX 01 01:09:62
  TRACK 25 AUDIO
    TITLE "DISC2Track23_25"
    INDEX 01 01:14:28
  TRACK 26 AUDIO
    TITLE "DISC2Track23_26"
    INDEX 01 01:18:65
  TRACK 27 AUDIO
    TITLE "DISC2Track23_27"
    INDEX 01 01:19:14
  TRACK 28 AUDIO
    TITLE "DISC2Track23_28"
    INDEX 01 01:23:63
  TRACK 29 AUDIO
    TITLE "DISC2Track23_29"
    INDEX 01 01:26:67
  TRACK 30 AUDIO
    TITLE "DISC2Track23_30"
    INDEX 01 01:29:65
  TRACK 31 AUDIO
    TITLE "DISC2Track23_31"
    INDEX 01 01:30:14
  TRACK 32 AUDIO
    TITLE "DISC2Track23_32"
    INDEX 01 01:34:06
  TRACK 33 AUDIO
    TITLE "DISC2Track23_33"
    INDEX 01 01:37:72
  TRACK 34 AUDIO
    TITLE "DISC2Track23_34"
    INDEX 01 01:41:57
  TRACK 35 AUDIO
    TITLE "DISC2Track23_35"
    INDEX 01 01:42:05
  TRACK 36 AUDIO
    TITLE "DISC2Track23_36"
    INDEX 01 01:45:17
  TRACK 37 AUDIO
    TITLE "DISC2Track23_37"
    INDEX 01 01:47:59
  TRACK 38 AUDIO
    TITLE "DISC2Track23_38"
    INDEX 01 01:50:26
  TRACK 39 AUDIO
    TITLE "DISC2Track23_39"
    INDEX 01 01:50:54
  TRACK 40 AUDIO
    TITLE "DISC2Track23_40"
    INDEX 01 01:54:67
  TRACK 41 AUDIO
    TITLE "DISC2Track23_41"
    INDEX 01 01:59:52
  TRACK 42 AUDIO
    TITLE "DISC2Track23_42"
    INDEX 01 02:04:24
